<svg width="149" height="51" viewBox="0 0 149 51" fill="none" xmlns="http://www.w3.org/2000/svg">
<path d="M147 26C130.41 56.2525 59.4283 5 7.42834 46.5C-0.571659 52.8846 -4.0717 56 11.5608 28.7475C7.85363 1.2476 4.56088 -1.25241 19.5017 1.2476C43.469 5.25799 162.081 -1.49991 147 26Z" fill="#489CC1"/>
<path d="M25.5312 8.89062C26.5781 9.01562 27.4844 9.10938 28.25 9.17188C29.0156 9.21875 29.6484 9.25781 30.1484 9.28906C30.7266 9.32031 31.2109 9.32812 31.6016 9.3125C32.0078 9.29688 32.5625 9.25781 33.2656 9.19531C33.8594 9.14844 34.6406 9.08594 35.6094 9.00781C36.5781 8.91406 37.7891 8.78906 39.2422 8.63281C39.2578 8.99219 39.2656 9.34375 39.2656 9.6875C39.2812 10.0156 39.2969 10.3047 39.3125 10.5547C39.3281 10.8516 39.3359 11.125 39.3359 11.375C39.3359 11.6406 39.3203 11.9766 39.2891 12.3828C39.2578 12.7266 39.2031 13.1641 39.125 13.6953C39.0625 14.2109 38.9609 14.8281 38.8203 15.5469C38.6016 14.7031 38.3906 14.0234 38.1875 13.5078C37.9844 12.9766 37.7969 12.5547 37.625 12.2422C37.4375 11.8828 37.25 11.6094 37.0625 11.4219C36.8594 11.2812 36.6172 11.1641 36.3359 11.0703C36.0859 10.9922 35.7656 10.9297 35.375 10.8828C35 10.8359 34.5547 10.8438 34.0391 10.9062C33.9609 12.9688 33.9062 14.6406 33.875 15.9219C33.8438 17.2031 33.8203 18.2031 33.8047 18.9219C33.7891 19.7812 33.7812 20.3984 33.7812 20.7734C33.7969 21.3047 33.8828 21.8281 34.0391 22.3438C34.1641 22.7812 34.3672 23.2344 34.6484 23.7031C34.9297 24.1719 35.3359 24.5859 35.8672 24.9453H33.0078C32.7422 24.9453 32.4141 24.9609 32.0234 24.9922C31.6953 25.0234 31.2734 25.0547 30.7578 25.0859C30.2578 25.1172 29.6719 25.1719 29 25.25C29.2344 24.8438 29.4219 24.4766 29.5625 24.1484C29.7031 23.8203 29.8125 23.5391 29.8906 23.3047C29.9844 23.0234 30.0547 22.7734 30.1016 22.5547C30.1172 22.2422 30.1562 21.6094 30.2188 20.6562C30.2344 20.2656 30.25 19.7812 30.2656 19.2031C30.2969 18.625 30.3281 17.9375 30.3594 17.1406C30.4062 16.3438 30.4453 15.4297 30.4766 14.3984C30.5234 13.3516 30.5703 12.1719 30.6172 10.8594C30.3359 10.7812 30.0703 10.7891 29.8203 10.8828C29.5703 10.9609 29.3516 11.0625 29.1641 11.1875C28.9453 11.3438 28.7344 11.5312 28.5312 11.75C28.3281 12.0156 28.1016 12.3594 27.8516 12.7812C27.6328 13.1406 27.3828 13.6172 27.1016 14.2109C26.8203 14.7891 26.5 15.5078 26.1406 16.3672C26.0625 15.4609 26.0078 14.7188 25.9766 14.1406C25.9453 13.5469 25.9219 13.0859 25.9062 12.7578C25.8906 12.3672 25.8828 12.0781 25.8828 11.8906C25.8828 11.7188 25.8672 11.4922 25.8359 11.2109C25.8047 10.9766 25.7656 10.6719 25.7188 10.2969C25.6719 9.90625 25.6094 9.4375 25.5312 8.89062ZM43.5781 15.5C43.9844 15.5 44.4062 15.5781 44.8438 15.7344C45.2812 15.875 45.7031 16.0625 46.1094 16.2969C46.5156 16.5156 46.8828 16.7578 47.2109 17.0234C47.5547 17.2734 47.8359 17.5156 48.0547 17.75C48.4453 18.1719 48.7109 18.7422 48.8516 19.4609C49.0078 20.1641 49.0391 20.8906 48.9453 21.6406C48.8516 22.375 48.6328 23.0703 48.2891 23.7266C47.9453 24.3828 47.4688 24.8672 46.8594 25.1797C46.4219 25.3984 45.9922 25.5703 45.5703 25.6953C45.1484 25.8203 44.7422 25.9141 44.3516 25.9766C43.9609 26.0391 43.5938 26.0703 43.25 26.0703C42.9062 26.0703 42.6094 26.0625 42.3594 26.0469C41.8906 26.0156 41.3984 25.8516 40.8828 25.5547C40.3828 25.2578 39.9062 24.8906 39.4531 24.4531C39.0156 24.0156 38.6406 23.5391 38.3281 23.0234C38.0156 22.4922 37.8281 21.9922 37.7656 21.5234C37.6719 20.8828 37.6562 20.2109 37.7188 19.5078C37.7812 18.8047 38.0078 18.1562 38.3984 17.5625C38.8047 16.9688 39.4141 16.4766 40.2266 16.0859C41.0547 15.6953 42.1719 15.5 43.5781 15.5ZM42.8047 24.5938C42.9766 24.625 43.2109 24.5859 43.5078 24.4766C43.8047 24.3516 44.0938 24.1562 44.375 23.8906C44.6719 23.625 44.9297 23.2891 45.1484 22.8828C45.3828 22.4609 45.5234 21.9531 45.5703 21.3594C45.6172 20.7812 45.6172 20.25 45.5703 19.7656C45.5391 19.2812 45.4688 18.8594 45.3594 18.5C45.25 18.125 45.125 17.8203 44.9844 17.5859C44.8438 17.3516 44.6953 17.1875 44.5391 17.0938C44.2734 16.9531 43.9531 16.8438 43.5781 16.7656C43.2031 16.6719 42.8828 16.6875 42.6172 16.8125C42.4922 16.875 42.3359 17.0078 42.1484 17.2109C41.9609 17.4141 41.7734 17.6719 41.5859 17.9844C41.3984 18.2812 41.2266 18.625 41.0703 19.0156C40.9297 19.4062 40.8281 19.8125 40.7656 20.2344C40.7031 20.6562 40.6875 21.1094 40.7188 21.5938C40.7656 22.0781 40.8672 22.5391 41.0234 22.9766C41.1797 23.3984 41.3984 23.7656 41.6797 24.0781C41.9766 24.375 42.3516 24.5469 42.8047 24.5938ZM49.2266 9.28906C49.7734 9.36719 50.25 9.42969 50.6562 9.47656C51.0625 9.52344 51.3984 9.5625 51.6641 9.59375C51.9766 9.625 52.2422 9.64844 52.4609 9.66406C52.7109 9.69531 53.0156 9.67969 53.375 9.61719C53.75 9.55469 54.1484 9.49219 54.5703 9.42969C54.9922 9.35156 55.4297 9.28906 55.8828 9.24219C56.3359 9.19531 56.7734 9.19531 57.1953 9.24219C57.4766 9.27344 57.8359 9.33594 58.2734 9.42969C58.7109 9.52344 59.1719 9.67188 59.6562 9.875C60.1562 10.0781 60.6562 10.3438 61.1562 10.6719C61.6562 11 62.1094 11.4141 62.5156 11.9141C62.9219 12.4141 63.2578 13.0078 63.5234 13.6953C63.7891 14.3828 63.9375 15.1875 63.9688 16.1094C64.0156 17.4844 63.8906 18.7344 63.5938 19.8594C63.2969 20.9844 62.8359 21.9453 62.2109 22.7422C61.6016 23.5391 60.8281 24.1641 59.8906 24.6172C58.9531 25.0703 57.8594 25.3203 56.6094 25.3672C55.6562 25.4453 54.7188 25.5156 53.7969 25.5781C53.4062 25.6094 52.9922 25.6328 52.5547 25.6484C52.1328 25.6641 51.7109 25.6797 51.2891 25.6953C50.8672 25.6953 50.4609 25.6875 50.0703 25.6719C49.6797 25.6562 49.3203 25.6328 48.9922 25.6016C49.3516 25.4297 49.6406 25.2578 49.8594 25.0859C50.0938 24.9141 50.2734 24.7656 50.3984 24.6406C50.5391 24.4844 50.6406 24.3438 50.7031 24.2188C50.7344 24.0469 50.7812 23.7109 50.8438 23.2109C50.8906 22.7891 50.9531 22.1875 51.0312 21.4062C51.1094 20.625 51.2031 19.5625 51.3125 18.2188L51.4531 16.5547C51.5312 15.5234 51.5625 14.6797 51.5469 14.0234C51.5469 13.3672 51.5312 12.8516 51.5 12.4766C51.4531 12.0391 51.3906 11.7188 51.3125 11.5156C51.25 11.3438 51.1328 11.1406 50.9609 10.9062C50.8047 10.7188 50.5859 10.4922 50.3047 10.2266C50.0391 9.94531 49.6797 9.63281 49.2266 9.28906ZM54.1719 17.9141C54.2031 19.3047 54.2734 20.375 54.3828 21.125C54.5078 21.8594 54.6406 22.4062 54.7812 22.7656C54.9531 23.1719 55.1406 23.4141 55.3438 23.4922C55.6406 23.4922 55.9766 23.3672 56.3516 23.1172C56.7266 22.8516 57.0938 22.4531 57.4531 21.9219C57.8281 21.3906 58.1641 20.7266 58.4609 19.9297C58.7734 19.1328 59 18.2031 59.1406 17.1406C59.2812 16.0781 59.2422 15.1406 59.0234 14.3281C58.8047 13.5156 58.5156 12.8359 58.1562 12.2891C57.7969 11.7266 57.4297 11.3047 57.0547 11.0234C56.6797 10.7266 56.3984 10.5781 56.2109 10.5781C55.9922 10.5781 55.7969 10.6406 55.625 10.7656C55.4531 10.875 55.2109 11.1328 54.8984 11.5391C54.7422 11.7578 54.6016 12.0703 54.4766 12.4766C54.3672 12.8359 54.2734 13.3125 54.1953 13.9062C54.1172 14.5 54.0938 15.2656 54.125 16.2031L54.1719 17.9141ZM71.0938 15.5C71.5 15.5 71.9219 15.5781 72.3594 15.7344C72.7969 15.875 73.2188 16.0625 73.625 16.2969C74.0312 16.5156 74.3984 16.7578 74.7266 17.0234C75.0703 17.2734 75.3516 17.5156 75.5703 17.75C75.9609 18.1719 76.2266 18.7422 76.3672 19.4609C76.5234 20.1641 76.5547 20.8906 76.4609 21.6406C76.3672 22.375 76.1484 23.0703 75.8047 23.7266C75.4609 24.3828 74.9844 24.8672 74.375 25.1797C73.9375 25.3984 73.5078 25.5703 73.0859 25.6953C72.6641 25.8203 72.2578 25.9141 71.8672 25.9766C71.4766 26.0391 71.1094 26.0703 70.7656 26.0703C70.4219 26.0703 70.125 26.0625 69.875 26.0469C69.4062 26.0156 68.9141 25.8516 68.3984 25.5547C67.8984 25.2578 67.4219 24.8906 66.9688 24.4531C66.5312 24.0156 66.1562 23.5391 65.8438 23.0234C65.5312 22.4922 65.3438 21.9922 65.2812 21.5234C65.1875 20.8828 65.1719 20.2109 65.2344 19.5078C65.2969 18.8047 65.5234 18.1562 65.9141 17.5625C66.3203 16.9688 66.9297 16.4766 67.7422 16.0859C68.5703 15.6953 69.6875 15.5 71.0938 15.5ZM70.3203 24.5938C70.4922 24.625 70.7266 24.5859 71.0234 24.4766C71.3203 24.3516 71.6094 24.1562 71.8906 23.8906C72.1875 23.625 72.4453 23.2891 72.6641 22.8828C72.8984 22.4609 73.0391 21.9531 73.0859 21.3594C73.1328 20.7812 73.1328 20.25 73.0859 19.7656C73.0547 19.2812 72.9844 18.8594 72.875 18.5C72.7656 18.125 72.6406 17.8203 72.5 17.5859C72.3594 17.3516 72.2109 17.1875 72.0547 17.0938C71.7891 16.9531 71.4688 16.8438 71.0938 16.7656C70.7188 16.6719 70.3984 16.6875 70.1328 16.8125C70.0078 16.875 69.8516 17.0078 69.6641 17.2109C69.4766 17.4141 69.2891 17.6719 69.1016 17.9844C68.9141 18.2812 68.7422 18.625 68.5859 19.0156C68.4453 19.4062 68.3438 19.8125 68.2812 20.2344C68.2188 20.6562 68.2031 21.1094 68.2344 21.5938C68.2812 22.0781 68.3828 22.5391 68.5391 22.9766C68.6953 23.3984 68.9141 23.7656 69.1953 24.0781C69.4922 24.375 69.8672 24.5469 70.3203 24.5938ZM85.3906 9.00781C85.8438 9.08594 86.2422 9.14062 86.5859 9.17188C86.9453 9.20312 87.2422 9.22656 87.4766 9.24219C87.7578 9.25781 88 9.26562 88.2031 9.26562C88.4062 9.26562 88.6953 9.25 89.0703 9.21875C89.3828 9.1875 89.7891 9.14844 90.2891 9.10156C90.8047 9.05469 91.4375 8.97656 92.1875 8.86719C91.9688 8.92969 91.7656 9.10938 91.5781 9.40625C91.4062 9.6875 91.25 9.99219 91.1094 10.3203C90.9375 10.7109 90.7891 11.1406 90.6641 11.6094C90.5547 12.0312 90.4141 12.6094 90.2422 13.3438C90.0859 14.0781 89.9297 14.875 89.7734 15.7344C89.6328 16.5938 89.5234 17.4688 89.4453 18.3594C89.3672 19.2344 89.3516 20.0391 89.3984 20.7734C89.4609 21.5078 89.6094 22.1172 89.8438 22.6016C90.0781 23.0703 90.4375 23.3203 90.9219 23.3516C91.6562 23.4141 92.2656 23.4219 92.75 23.375C93.25 23.3125 93.6562 23.2266 93.9688 23.1172C94.2812 23.0078 94.5234 22.8828 94.6953 22.7422C94.8672 22.5859 95 22.4375 95.0938 22.2969C95.3438 21.9375 95.6016 21.4766 95.8672 20.9141C96.1328 20.3516 96.3672 19.8125 96.5703 19.2969C96.7891 18.7812 96.9688 18.3438 97.1094 17.9844C97.25 17.625 97.3203 17.4531 97.3203 17.4688C97.3203 17.5 97.3125 17.6797 97.2969 18.0078C97.2969 18.3203 97.2891 18.7031 97.2734 19.1562C97.2734 19.5938 97.2656 20.0547 97.25 20.5391C97.25 21.0234 97.2422 21.4375 97.2266 21.7812C97.2109 22.0625 97.1953 22.375 97.1797 22.7188C97.1641 23.0156 97.1484 23.3672 97.1328 23.7734C97.1328 24.1797 97.1172 24.625 97.0859 25.1094C96.4297 25.0625 95.8047 25.0312 95.2109 25.0156C94.6172 25 94.0938 24.9922 93.6406 24.9922C93.1094 24.9922 92.6172 25 92.1641 25.0156C91.6797 25.0312 91.1172 25.0547 90.4766 25.0859C89.9297 25.1172 89.25 25.1562 88.4375 25.2031C87.625 25.2344 86.6875 25.2812 85.625 25.3438C85.75 25.125 85.8516 24.9219 85.9297 24.7344C86.0234 24.5469 86.0938 24.3906 86.1406 24.2656C86.2031 24.1094 86.2422 23.9766 86.2578 23.8672C86.3516 23.3672 86.4297 22.7344 86.4922 21.9688C86.5547 21.1875 86.6016 20.3594 86.6328 19.4844C86.6797 18.6094 86.7031 17.7188 86.7031 16.8125C86.7188 15.8906 86.7188 15.0391 86.7031 14.2578C86.6875 13.4766 86.6562 12.7969 86.6094 12.2188C86.5781 11.6406 86.5312 11.2422 86.4688 11.0234C86.3906 10.7734 86.2969 10.5234 86.1875 10.2734C86.0938 10.0547 85.9766 9.83594 85.8359 9.61719C85.7109 9.38281 85.5625 9.17969 85.3906 9.00781ZM98.6328 15.5234L102.945 15.5703C102.695 16.5234 102.508 17.3359 102.383 18.0078C102.273 18.6797 102.203 19.2422 102.172 19.6953C102.109 20.2109 102.094 20.6484 102.125 21.0078C102.172 21.3359 102.25 21.6875 102.359 22.0625C102.453 22.375 102.594 22.7344 102.781 23.1406C102.969 23.5469 103.219 23.9531 103.531 24.3594C103.344 24.2969 103.141 24.25 102.922 24.2188C102.703 24.1875 102.5 24.1641 102.312 24.1484C102.094 24.1328 101.875 24.1328 101.656 24.1484C101.438 24.1641 101.195 24.1875 100.93 24.2188C100.711 24.25 100.445 24.2891 100.133 24.3359C99.8203 24.3828 99.4922 24.4453 99.1484 24.5234C99.3828 23.8203 99.5625 23.2109 99.6875 22.6953C99.8281 22.1797 99.9297 21.75 99.9922 21.4062C100.055 21 100.094 20.6719 100.109 20.4219C100.109 20.1094 100.109 19.7578 100.109 19.3672C100.109 18.9609 100.109 18.5703 100.109 18.1953C100.109 17.8203 100.102 17.4922 100.086 17.2109C100.07 16.9141 100.039 16.7266 99.9922 16.6484L99.7578 16.4141C99.6641 16.3359 99.5234 16.2266 99.3359 16.0859C99.1641 15.9297 98.9297 15.7422 98.6328 15.5234ZM100.297 11.9141C100.625 11.7422 100.953 11.6953 101.281 11.7734C101.625 11.8516 101.891 12 102.078 12.2188C102.266 12.4375 102.328 12.6953 102.266 12.9922C102.219 13.2891 101.969 13.5781 101.516 13.8594C101.062 14.125 100.664 14.2188 100.32 14.1406C99.9766 14.0625 99.7344 13.8984 99.5938 13.6484C99.4531 13.3984 99.4297 13.1094 99.5234 12.7812C99.6172 12.4375 99.875 12.1484 100.297 11.9141ZM114.711 12.6172C114.57 12.9609 114.445 13.2734 114.336 13.5547C114.242 13.8359 114.156 14.0859 114.078 14.3047C114 14.5547 113.93 14.7734 113.867 14.9609C113.805 15.1797 113.734 15.4297 113.656 15.7109C113.578 15.9609 113.477 16.2734 113.352 16.6484C113.242 17.0078 113.109 17.4375 112.953 17.9375C112.828 17.1875 112.602 16.5938 112.273 16.1562C111.945 15.7031 111.609 15.3516 111.266 15.1016C110.859 14.8203 110.422 14.6172 109.953 14.4922C109.109 14.3516 108.5 14.3672 108.125 14.5391C107.75 14.7109 107.5 14.9297 107.375 15.1953C107.312 15.3047 107.242 15.4453 107.164 15.6172C107.102 15.7734 107.047 15.9375 107 16.1094C106.969 16.2812 106.961 16.4531 106.977 16.625C106.992 16.7969 107.062 16.9375 107.188 17.0469C107.266 17.125 107.469 17.2344 107.797 17.375C108.125 17.5 108.516 17.6484 108.969 17.8203C109.438 17.9766 109.93 18.1484 110.445 18.3359C110.977 18.5234 111.477 18.7109 111.945 18.8984C112.414 19.0859 112.82 19.2734 113.164 19.4609C113.508 19.6484 113.734 19.8203 113.844 19.9766C113.938 20.1328 114.039 20.3438 114.148 20.6094C114.273 20.8594 114.359 21.1406 114.406 21.4531C114.469 21.75 114.484 22.0625 114.453 22.3906C114.438 22.7031 114.352 23.0156 114.195 23.3281C114.039 23.6406 113.789 23.9297 113.445 24.1953C113.117 24.4609 112.672 24.6797 112.109 24.8516C111.453 25.0547 110.82 25.1094 110.211 25.0156C109.602 24.9219 109.039 24.7812 108.523 24.5938C108.023 24.4062 107.586 24.2266 107.211 24.0547C106.836 23.8672 106.57 23.7891 106.414 23.8203C106.242 23.8516 106.047 23.9375 105.828 24.0781C105.609 24.2188 105.398 24.3672 105.195 24.5234C105.008 24.6641 104.844 24.7969 104.703 24.9219C104.562 25.0312 104.492 25.0703 104.492 25.0391C104.492 25.0078 104.516 24.9141 104.562 24.7578C104.625 24.6016 104.688 24.4141 104.75 24.1953C104.828 23.9609 104.898 23.7109 104.961 23.4453C105.039 23.1641 105.094 22.8984 105.125 22.6484C105.156 22.4453 105.195 22.1953 105.242 21.8984C105.273 21.6328 105.312 21.3125 105.359 20.9375C105.422 20.5469 105.492 20.0781 105.57 19.5312C105.648 19.9375 105.758 20.2891 105.898 20.5859C106.055 20.8828 106.203 21.1406 106.344 21.3594C106.516 21.6094 106.68 21.8203 106.836 21.9922C107.07 22.2109 107.344 22.4141 107.656 22.6016C107.984 22.7891 108.312 22.9531 108.641 23.0938C108.969 23.2188 109.281 23.2969 109.578 23.3281C109.875 23.3594 110.125 23.3281 110.328 23.2344C110.531 23.1406 110.703 22.9688 110.844 22.7188C111 22.4688 111.109 22.1953 111.172 21.8984C111.234 21.6016 111.258 21.3203 111.242 21.0547C111.227 20.7734 111.156 20.5469 111.031 20.375C110.938 20.2656 110.719 20.125 110.375 19.9531C110.047 19.7812 109.648 19.5938 109.18 19.3906C108.727 19.1875 108.242 18.9766 107.727 18.7578C107.227 18.5391 106.75 18.3203 106.297 18.1016C105.859 17.8672 105.492 17.6484 105.195 17.4453C104.914 17.2266 104.758 17.0312 104.727 16.8594C104.695 16.6094 104.672 16.3359 104.656 16.0391C104.641 15.7266 104.656 15.4219 104.703 15.125C104.766 14.8125 104.875 14.5156 105.031 14.2344C105.203 13.9531 105.453 13.7188 105.781 13.5312C106 13.4062 106.289 13.3125 106.648 13.25C107.008 13.1875 107.406 13.1562 107.844 13.1562C108.281 13.1406 108.734 13.1562 109.203 13.2031C109.672 13.2344 110.117 13.2812 110.539 13.3438C110.977 13.3906 111.367 13.4531 111.711 13.5312C112.07 13.6094 112.344 13.6797 112.531 13.7422C112.75 13.8203 112.984 13.8281 113.234 13.7656C113.453 13.7188 113.688 13.6172 113.938 13.4609C114.188 13.3047 114.445 13.0234 114.711 12.6172ZM115.273 11.2344C115.742 11.2812 116.133 11.3203 116.445 11.3516C116.773 11.3828 117.039 11.4062 117.242 11.4219C117.477 11.4375 117.664 11.4453 117.805 11.4453C117.945 11.4609 118.133 11.4609 118.367 11.4453C118.57 11.4297 118.836 11.4141 119.164 11.3984C119.492 11.3672 119.906 11.3203 120.406 11.2578C120.297 11.4141 120.211 11.5547 120.148 11.6797C120.086 11.7891 120.031 11.8906 119.984 11.9844L119.844 12.2656C119.812 12.3594 119.781 12.4531 119.75 12.5469C119.719 12.625 119.688 12.7188 119.656 12.8281C119.641 12.9375 119.625 13.0547 119.609 13.1797H123.219L122.891 15.0781L119.586 14.8906C119.508 15.6875 119.453 16.3047 119.422 16.7422C119.391 17.1797 119.359 17.5 119.328 17.7031L119.281 18.125C119.234 18.7188 119.188 19.3672 119.141 20.0703C119.094 20.7578 119.078 21.3984 119.094 21.9922C119.109 22.5859 119.164 23.0859 119.258 23.4922C119.352 23.8828 119.516 24.0781 119.75 24.0781C119.984 24.0781 120.203 24.0156 120.406 23.8906C120.609 23.7656 120.781 23.6172 120.922 23.4453C121.078 23.2734 121.195 23.1016 121.273 22.9297C121.352 22.7422 121.391 22.6016 121.391 22.5078C121.391 22.4141 121.367 22.3047 121.32 22.1797C121.242 21.9453 121.102 21.6484 120.898 21.2891C121.352 21.3984 121.75 21.5078 122.094 21.6172C122.266 21.6797 122.422 21.7422 122.562 21.8047C122.719 21.8672 122.898 21.9375 123.102 22.0156C123.273 22.0938 123.492 22.1875 123.758 22.2969C124.023 22.4062 124.336 22.5391 124.695 22.6953C124.352 22.7578 124.102 22.8594 123.945 23C123.852 23.0625 123.781 23.1328 123.734 23.2109C123.625 23.3828 123.5 23.6172 123.359 23.9141C123.219 24.1953 123.008 24.4766 122.727 24.7578C122.445 25.0391 122.062 25.2891 121.578 25.5078C121.109 25.7266 120.477 25.8516 119.68 25.8828C118.852 25.9141 118.219 25.7734 117.781 25.4609C117.359 25.1484 117.047 24.7891 116.844 24.3828C116.656 23.9609 116.547 23.5469 116.516 23.1406C116.484 22.7344 116.461 22.4609 116.445 22.3203C116.43 22.1797 116.43 21.8281 116.445 21.2656C116.461 20.7031 116.484 20.0859 116.516 19.4141C116.547 18.7266 116.578 18.0703 116.609 17.4453C116.641 16.8047 116.656 16.3359 116.656 16.0391C116.656 15.8828 116.664 15.7188 116.68 15.5469C116.68 15.4062 116.68 15.2578 116.68 15.1016C116.695 14.9297 116.703 14.7656 116.703 14.6094L113.305 14.5859L113.164 13.25L116.586 13.3438C116.555 13.1719 116.516 13.0156 116.469 12.875C116.438 12.7188 116.406 12.5938 116.375 12.5C116.328 12.3906 116.281 12.2969 116.234 12.2188C116.172 12.1406 116.102 12.0547 116.023 11.9609C115.945 11.8828 115.844 11.7812 115.719 11.6562C115.594 11.5312 115.445 11.3906 115.273 11.2344Z" fill="white"/>
</svg>
